<svg id="Isolation_Mode" data-name="Isolation Mode" xmlns="http://www.w3.org/2000/svg" viewBox="0 0 200 30">
  <defs>
    <style>
      .cls-1 {
        fill: #707070;
      }

      .cls-2 {
        fill: #557c38;
      }

      .cls-3 {
        fill: #6cad44;
      }

      .cls-4 {
        fill: #c4d945;
      }
    </style>
  </defs>
  <g id="Group_182-2" data-name="Group 182-2">
    <g id="Group_180-2" data-name="Group 180-2">
      <g id="Path_174-2" data-name="Path 174-2">
        <path id="Path_30270" data-name="Path 30270" class="cls-1" d="M46.23,6.41a1.16,1.16,0,0,1-.17.6,1.43,1.43,0,0,1-.35.42,3.86,3.86,0,0,0-.6-.54,5.2,5.2,0,0,0-1-.62,8.7,8.7,0,0,0-1.48-.53,8,8,0,0,0-1.94-.22q-4.34,0-4.33,3.18A2.91,2.91,0,0,0,36.57,10a2.37,2.37,0,0,0,.72.88,4,4,0,0,0,1.13.61,10,10,0,0,0,1.49.42l2.58.55A6.93,6.93,0,0,1,45.9,14a4.07,4.07,0,0,1,1.11,3,5.13,5.13,0,0,1-.36,2,4.07,4.07,0,0,1-1.13,1.56,5.73,5.73,0,0,1-1.9,1,8.68,8.68,0,0,1-2.68.37,11.41,11.41,0,0,1-2.18-.2A10.85,10.85,0,0,1,37,21.27a8.74,8.74,0,0,1-1.38-.66,10.25,10.25,0,0,1-1-.65l.73-1.34a10,10,0,0,0,.84.57,7.67,7.67,0,0,0,1.21.62,8.79,8.79,0,0,0,1.58.5,8.58,8.58,0,0,0,2,.2,5.61,5.61,0,0,0,3.25-.8,2.87,2.87,0,0,0,1.19-2.53,3.26,3.26,0,0,0-.29-1.44,2.44,2.44,0,0,0-.77-.92,4,4,0,0,0-1.13-.55c-.43-.13-.89-.24-1.36-.34l-2.56-.5a7.87,7.87,0,0,1-1.77-.54A4.8,4.8,0,0,1,36.09,12a4,4,0,0,1-1-1.34,4.29,4.29,0,0,1-.36-1.8A5.21,5.21,0,0,1,35.07,7a3.77,3.77,0,0,1,1-1.51,5,5,0,0,1,1.82-1,8.22,8.22,0,0,1,2.74-.38,11.15,11.15,0,0,1,2.08.16,8.35,8.35,0,0,1,1.49.38,5.84,5.84,0,0,1,1,.46,5.3,5.3,0,0,1,.54.39,1.83,1.83,0,0,1,.42.5A1.18,1.18,0,0,1,46.23,6.41Z"/>
      </g>
      <g id="Path_175-2" data-name="Path 175-2">
        <path id="Path_30271" data-name="Path 30271" class="cls-1" d="M50.31,16.48a4.64,4.64,0,0,0,1.38,3,5,5,0,0,0,4.91.68,8.79,8.79,0,0,0,1.17-.63l.63,1.19c-.11.08-.29.2-.52.34a6.52,6.52,0,0,1-.84.41,7.32,7.32,0,0,1-1.13.33,6.4,6.4,0,0,1-1.38.14,6.09,6.09,0,0,1-2.24-.41,5.26,5.26,0,0,1-1.84-1.21,5.71,5.71,0,0,1-1.25-2,7.6,7.6,0,0,1-.45-2.71,8.07,8.07,0,0,1,.43-2.72,6.57,6.57,0,0,1,1.21-2.12,5.42,5.42,0,0,1,1.86-1.36,5.55,5.55,0,0,1,2.34-.49,5.8,5.8,0,0,1,1.9.29,3.66,3.66,0,0,1,1.35.81,3.18,3.18,0,0,1,.81,1.23,3.93,3.93,0,0,1,.27,1.52,3.73,3.73,0,0,1-.29,1.51,2.89,2.89,0,0,1-1,1.19,5.22,5.22,0,0,1-1.88.8,13,13,0,0,1-3,.29H51.51Zm0-1.29,1.13.06h1.16A10.9,10.9,0,0,0,55,15.05a4.69,4.69,0,0,0,1.5-.56,1.9,1.9,0,0,0,.77-.82,2.27,2.27,0,0,0,.22-1,2.47,2.47,0,0,0-.25-1.17,2.05,2.05,0,0,0-.67-.76,2.77,2.77,0,0,0-.95-.41,5.09,5.09,0,0,0-1.1-.13,3.89,3.89,0,0,0-1.8.41,4,4,0,0,0-1.31,1.11,5.34,5.34,0,0,0-.82,1.59,6.53,6.53,0,0,0-.3,1.87Z"/>
      </g>
      <g id="Path_176-2" data-name="Path 176-2">
        <path id="Path_30272" data-name="Path 30272" class="cls-1" d="M60.93,4.07a1,1,0,0,1,.18-.61.71.71,0,0,1,.6-.23,1.21,1.21,0,0,1,.38.06l.27.11V21.55H60.93Z"/>
      </g>
      <g id="Path_177-2" data-name="Path 177-2">
        <path id="Path_30273" data-name="Path 30273" class="cls-1" d="M65.14,4.07a1,1,0,0,1,.19-.61.71.71,0,0,1,.6-.23,1.19,1.19,0,0,1,.37.06l.28.11V21.55H65.14Z"/>
      </g>
      <g id="Path_178-2" data-name="Path 178-2">
        <path id="Path_30274" data-name="Path 30274" class="cls-1" d="M71.12,4.92a1.3,1.3,0,0,1-.31.86,1,1,0,0,1-.75.36,1,1,0,0,1-.74-.36,1.34,1.34,0,0,1-.3-.86,1.32,1.32,0,0,1,.3-.85.91.91,0,0,1,.74-.34,1,1,0,0,1,.75.34A1.21,1.21,0,0,1,71.12,4.92Zm-1.75,5.2a1,1,0,0,1,.18-.61.71.71,0,0,1,.6-.24,1,1,0,0,1,.38.07,1,1,0,0,1,.27.11v12.1H69.37Z"/>
      </g>
      <g id="Path_179-2" data-name="Path 179-2">
        <path id="Path_30275" data-name="Path 30275" class="cls-1" d="M82.08,21.55V14.69a5.1,5.1,0,0,0-.9-3.21,3.78,3.78,0,0,0-5.35-.07.23.23,0,0,0-.07.07,5.09,5.09,0,0,0-.89,3.21v6.86H73.44V14.19a6.24,6.24,0,0,1,.35-2.14,4.81,4.81,0,0,1,1-1.67A4.5,4.5,0,0,1,76.36,9.3a6,6,0,0,1,4.21,0,4.36,4.36,0,0,1,1.59,1.08,4.6,4.6,0,0,1,1,1.67,6.24,6.24,0,0,1,.35,2.14v7.36Z"/>
      </g>
      <g id="Path_180-2" data-name="Path 180-2">
        <path id="Path_30276" data-name="Path 30276" class="cls-1" d="M97,19.44a10.79,10.79,0,0,1-.45,3.39,6,6,0,0,1-1.27,2.28,4.83,4.83,0,0,1-1.92,1.26,6.87,6.87,0,0,1-2.42.4,8.53,8.53,0,0,1-2.61-.31A11.86,11.86,0,0,1,86.89,26l.39-1.34c.09,0,.23.1.42.19a6,6,0,0,0,.75.26,9.83,9.83,0,0,0,1,.22,7.77,7.77,0,0,0,1.27.1,7.47,7.47,0,0,0,1.63-.18,3.67,3.67,0,0,0,1.54-.77,4.33,4.33,0,0,0,1.17-1.67,7.37,7.37,0,0,0,.47-2.9v-.6a5.07,5.07,0,0,1-1.77,2,4.59,4.59,0,0,1-2.5.68,5.71,5.71,0,0,1-2.4-.5A5.12,5.12,0,0,1,87.12,20,6.41,6.41,0,0,1,86,18a8.43,8.43,0,0,1-.39-2.55A7.5,7.5,0,0,1,86,12.88a6.42,6.42,0,0,1,1.18-2.06A5.42,5.42,0,0,1,89,9.43a5.24,5.24,0,0,1,2.33-.51,5.3,5.3,0,0,1,2,.36,5,5,0,0,1,1.65,1A5.7,5.7,0,0,1,96.2,12a7.62,7.62,0,0,1,.67,2.19c0,.23,0,.5.07.8s0,.66,0,1.06Zm-9.82-4a6.84,6.84,0,0,0,.29,2.06,4.73,4.73,0,0,0,.84,1.62,3.81,3.81,0,0,0,1.32,1,4,4,0,0,0,1.75.38,3.78,3.78,0,0,0,1.72-.4A4.32,4.32,0,0,0,94.39,19a4.73,4.73,0,0,0,.84-1.62,6.65,6.65,0,0,0,.29-2,6.24,6.24,0,0,0-.3-2,4.77,4.77,0,0,0-.84-1.59,3.87,3.87,0,0,0-1.32-1.06,3.75,3.75,0,0,0-1.71-.38,3.64,3.64,0,0,0-1.74.4,4.05,4.05,0,0,0-1.32,1.08,5,5,0,0,0-.85,1.61,7,7,0,0,0-.29,2Z"/>
      </g>
      <g id="Path_181-2" data-name="Path 181-2">
        <path id="Path_30277" data-name="Path 30277" class="cls-1" d="M99.88,17.65a4.91,4.91,0,0,0,.71.48,9.14,9.14,0,0,0,1.18.57,10.17,10.17,0,0,0,1.6.49,9.25,9.25,0,0,0,2,.2,4.48,4.48,0,0,0,2.7-.63,2.15,2.15,0,0,0,.81-1.8,2.27,2.27,0,0,0-.18-1,1.93,1.93,0,0,0-.54-.69,2.91,2.91,0,0,0-.87-.46,11,11,0,0,0-1.16-.3l-2.38-.5a8.81,8.81,0,0,1-1.75-.52,5.09,5.09,0,0,1-1.49-.92,4.2,4.2,0,0,1-1-1.4,4.58,4.58,0,0,1-.39-2,5.85,5.85,0,0,1,.33-2,4.17,4.17,0,0,1,1.07-1.64,5.46,5.46,0,0,1,1.87-1.11A8.09,8.09,0,0,1,105,4.05a14,14,0,0,1,2,.15,9.27,9.27,0,0,1,1.47.36,5.65,5.65,0,0,1,1,.44,5.19,5.19,0,0,1,.54.35,2.71,2.71,0,0,1,.57.6,1.3,1.3,0,0,1,.21.74,1.89,1.89,0,0,1-.3,1.06,2.29,2.29,0,0,1-.56.68,3.31,3.31,0,0,0-.62-.56,5.79,5.79,0,0,0-1-.58,8.35,8.35,0,0,0-1.44-.47,7.31,7.31,0,0,0-1.8-.2,7,7,0,0,0-1.64.17,3,3,0,0,0-1,.49,1.78,1.78,0,0,0-.56.74,2.56,2.56,0,0,0-.17,1,1.8,1.8,0,0,0,.63,1.48,5.07,5.07,0,0,0,2.14.86l2.42.52a7.24,7.24,0,0,1,3.55,1.63,4.31,4.31,0,0,1,1.19,3.27,5.45,5.45,0,0,1-.41,2.15,4.6,4.6,0,0,1-1.2,1.66,5.31,5.31,0,0,1-2,1.06,8.94,8.94,0,0,1-2.72.38,11.94,11.94,0,0,1-2.38-.24A12.83,12.83,0,0,1,101,21.2a10.17,10.17,0,0,1-1.41-.68c-.37-.24-.65-.42-.82-.55Z"/>
      </g>
      <g id="Path_182-2" data-name="Path 182-2">
        <path id="Path_30278" data-name="Path 30278" class="cls-1" d="M115,3.48a1.33,1.33,0,0,1,1.06.5,1.91,1.91,0,0,1,0,2.43,1.38,1.38,0,0,1-1.94.19,1.07,1.07,0,0,1-.18-.19A1.91,1.91,0,0,1,114,4,1.33,1.33,0,0,1,115,3.48Zm-1.24,6.91a1.34,1.34,0,0,1,.35-1,1.41,1.41,0,0,1,1-.31,2.46,2.46,0,0,1,.72.11l.43.16V21.55h-2.47Z"/>
      </g>
      <g id="Path_183-2" data-name="Path 183-2">
        <path id="Path_30279" data-name="Path 30279" class="cls-1" d="M118.78,13.52a5.55,5.55,0,0,1,.37-2.09,4.19,4.19,0,0,1,1-1.49,4.35,4.35,0,0,1,1.5-.91,5.7,5.7,0,0,1,1.88-.31,5.11,5.11,0,0,1,2.4.57,4.25,4.25,0,0,1,1.69,1.7,4.24,4.24,0,0,1,1.66-1.7,5,5,0,0,1,2.36-.57,5.8,5.8,0,0,1,1.86.3,4.18,4.18,0,0,1,1.5.9,4.3,4.3,0,0,1,1,1.49,5.55,5.55,0,0,1,.37,2.09v8.06h-2.47V14.47a3.63,3.63,0,0,0-.67-2.45,2.36,2.36,0,0,0-1.82-.73,2.42,2.42,0,0,0-1.85.82,3.9,3.9,0,0,0-.75,2.66v6.79h-2.46V14.77a3.94,3.94,0,0,0-.75-2.66,2.55,2.55,0,0,0-3.67-.08,3.55,3.55,0,0,0-.69,2.46v7.06h-2.47Z"/>
      </g>
      <g id="Path_184-2" data-name="Path 184-2">
        <path id="Path_30280" data-name="Path 30280" class="cls-1" d="M138.69,15.89a10,10,0,0,1,.44-3.07,6.42,6.42,0,0,1,1.21-2.24,5.13,5.13,0,0,1,1.88-1.38,6.07,6.07,0,0,1,2.45-.47,5.11,5.11,0,0,1,2.27.5,5.61,5.61,0,0,1,1.81,1.36,6.33,6.33,0,0,1,1.2,2.09,7.9,7.9,0,0,1,.43,2.64A7.89,7.89,0,0,1,150,18,6.38,6.38,0,0,1,148.79,20,5.41,5.41,0,0,1,147,21.4a5.07,5.07,0,0,1-2.2.48,4.2,4.2,0,0,1-2.19-.55A4.56,4.56,0,0,1,141.16,20v6.53h-2.47Zm5.8,3.48a3.19,3.19,0,0,0,1.36-.31,3.27,3.27,0,0,0,1.06-.86,4.1,4.1,0,0,0,.68-1.29,5.58,5.58,0,0,0,.24-1.62,5.26,5.26,0,0,0-.24-1.58,3.9,3.9,0,0,0-.68-1.27,3.21,3.21,0,0,0-1.06-.84,3.16,3.16,0,0,0-2.71,0,3.12,3.12,0,0,0-1.06.82,3.74,3.74,0,0,0-.69,1.25,5.46,5.46,0,0,0,0,3.25,4.32,4.32,0,0,0,.68,1.29,3.13,3.13,0,0,0,1.05.86,3,3,0,0,0,1.37.3Z"/>
      </g>
      <g id="Path_185-2" data-name="Path 185-2">
        <path id="Path_30281" data-name="Path 30281" class="cls-1" d="M152.47,4.55a1.31,1.31,0,0,1,.35-1,1.37,1.37,0,0,1,1-.32,2.21,2.21,0,0,1,.72.11l.43.16V21.55h-2.47Z"/>
      </g>
      <g id="Path_186-2" data-name="Path 186-2">
        <path id="Path_30282" data-name="Path 30282" class="cls-1" d="M158.81,3.48a1.33,1.33,0,0,1,1.06.5,1.94,1.94,0,0,1,0,2.43,1.38,1.38,0,0,1-1.94.19,1.07,1.07,0,0,1-.18-.19,1.91,1.91,0,0,1,0-2.43A1.33,1.33,0,0,1,158.81,3.48Zm-1.24,6.91a1.34,1.34,0,0,1,.35-1,1.41,1.41,0,0,1,1-.31,2.46,2.46,0,0,1,.72.11l.43.16V21.55h-2.47Z"/>
      </g>
      <g id="Path_187-2" data-name="Path 187-2">
        <path id="Path_30283" data-name="Path 30283" class="cls-1" d="M162.72,8.3a6.53,6.53,0,0,1,.38-2.36,4.11,4.11,0,0,1,1-1.57,4,4,0,0,1,1.53-.87,6.35,6.35,0,0,1,1.89-.27,6.47,6.47,0,0,1,2.82.46,1.36,1.36,0,0,1,.82,1.75,1.23,1.23,0,0,1-.12.26,1.84,1.84,0,0,1-.45.51,1.78,1.78,0,0,0-.48-.28,4.23,4.23,0,0,0-.68-.24,7,7,0,0,0-.77-.16,4.74,4.74,0,0,0-.75-.06,2.71,2.71,0,0,0-2,.72,3,3,0,0,0-.74,2.26v.62h6.25a1.1,1.1,0,0,1,1,.39,2.19,2.19,0,0,1,.24,1.18V21.55h-2.44V11.69h-5.07v9.87h-2.44Z"/>
      </g>
      <g id="Path_188-2" data-name="Path 188-2">
        <path id="Path_30284" data-name="Path 30284" class="cls-1" d="M184.93,20.63c-.11.08-.29.2-.54.35a5.1,5.1,0,0,1-.92.42,9.17,9.17,0,0,1-1.27.35,8.56,8.56,0,0,1-1.59.15,6.06,6.06,0,0,1-2.27-.42,5.26,5.26,0,0,1-1.84-1.26,6,6,0,0,1-1.24-2,7.94,7.94,0,0,1-.46-2.77,7.84,7.84,0,0,1,.45-2.72,6.44,6.44,0,0,1,1.23-2.12,5.57,5.57,0,0,1,4.21-1.85,5.38,5.38,0,0,1,2,.34,4.41,4.41,0,0,1,1.46.9,3.46,3.46,0,0,1,.9,1.3,4.39,4.39,0,0,1,0,3.17,2.7,2.7,0,0,1-1,1.22,5.58,5.58,0,0,1-1.92.79,13.81,13.81,0,0,1-3.08.29c-.28,0-.55,0-.81,0l-.81,0a3.22,3.22,0,0,0,1.07,2.05,3.81,3.81,0,0,0,2.57.78,5.24,5.24,0,0,0,1-.1,5.16,5.16,0,0,0,.85-.25,4.22,4.22,0,0,0,.65-.3l.4-.22Zm-7.6-5.89c.34,0,.66,0,1,0h.9a8.31,8.31,0,0,0,1.93-.17,3.37,3.37,0,0,0,1.15-.45,1.31,1.31,0,0,0,.54-.62,2,2,0,0,0,.13-.72,1.62,1.62,0,0,0-.66-1.42,2.78,2.78,0,0,0-1.64-.47,3,3,0,0,0-1.4.32,3.14,3.14,0,0,0-1,.86,4.12,4.12,0,0,0-.64,1.23,4.92,4.92,0,0,0-.24,1.42Z"/>
      </g>
      <g id="Path_189-2" data-name="Path 189-2">
        <path id="Path_30285" data-name="Path 30285" class="cls-1" d="M195.87,4.55a1.16,1.16,0,0,1,1-1.32,1.07,1.07,0,0,1,.31,0,2.17,2.17,0,0,1,.72.11,4.44,4.44,0,0,1,.43.16V14.71a10.23,10.23,0,0,1-.44,3.16,6.61,6.61,0,0,1-1.22,2.24,5.08,5.08,0,0,1-1.84,1.34,6,6,0,0,1-2.32.45,5.46,5.46,0,0,1-2.35-.5A5.79,5.79,0,0,1,188.3,20a6.28,6.28,0,0,1-1.22-2.09,7.86,7.86,0,0,1-.45-2.63,8.22,8.22,0,0,1,.43-2.65,6.53,6.53,0,0,1,1.17-2.09A5.33,5.33,0,0,1,190,9.2a5.07,5.07,0,0,1,2.2-.48,4.3,4.3,0,0,1,2.21.56,4.48,4.48,0,0,1,1.49,1.35Zm0,10.76a5,5,0,0,0-.24-1.59,4.12,4.12,0,0,0-.69-1.29,3,3,0,0,0-1.05-.86,2.88,2.88,0,0,0-1.35-.31,2.92,2.92,0,0,0-1.36.31,3.3,3.3,0,0,0-1.05.84,3.77,3.77,0,0,0-.68,1.28,5,5,0,0,0-.24,1.62,4.86,4.86,0,0,0,.24,1.6,3.72,3.72,0,0,0,.68,1.27,3.17,3.17,0,0,0,1.05.84,2.8,2.8,0,0,0,1.36.31,3.05,3.05,0,0,0,2.4-1.12,3.59,3.59,0,0,0,.68-1.26,5.06,5.06,0,0,0,.25-1.64Z"/>
      </g>
    </g>
    <g id="Group_181-2" data-name="Group 181-2">
      <g id="Path_190-2" data-name="Path 190-2">
        <path id="Path_30286" data-name="Path 30286" class="cls-2" d="M15.27.55s9.44,1.07,9.33,11.07H18.47s2.84-3,1.94-6.31A7,7,0,0,0,15.27.55Z"/>
      </g>
      <g id="Path_191-2" data-name="Path 191-2">
        <path id="Path_30287" data-name="Path 30287" class="cls-3" d="M18.53,10.35A6.43,6.43,0,0,0,19.8,7a6.15,6.15,0,0,0-.36-2.58C18,.86,9.45-1.45,5.09,2.35A8.07,8.07,0,0,0,2.68,6.46s-1.24,6.36,12.21,7.06c0,0-6.37-1.58-6.43-3.24a3.71,3.71,0,0,1,2.73-4.46,3.35,3.35,0,0,1,.54-.08S18.42,4.56,18.53,10.35Z"/>
      </g>
      <g id="Path_192-2" data-name="Path 192-2">
        <path id="Path_30288" data-name="Path 30288" class="cls-4" d="M2.07,7.91s.34,5.85,12.84,6.54c0,0,14.72,1.28,8.81,15.16,0,0,2.46-8.12-10.78-9.15C12.94,20.46-.79,18.34,2.07,7.91Z"/>
      </g>
    </g>
  </g>
</svg>
